# xmcd
#
# Track frame offsets:
#	150
#	13365
#	24038
#	35619
#	46441
#	56582
#	67759
#	77980
#	88375
#	114896
#	126029
#	136623
#	146950
#	159213
#	171608
#	182189
#	191253
#	203251
#	213412
#	223370
#	248773
#	257848
#	271002
#	282135
#	292628
#	303968
#	314776
#	331770
#
# Disc length: 4558 seconds
#
# Revision: 0
# Processed by: cddbd v1.5.2PL0 Copyright (c) Steve Scherf et al.
# Submitted via: FairStars CD Ripper 1.80
#
DISCID=9311cc1c
DTITLE=Various Artist - Out of many, One music cd3
DYEAR=2015
DGENRE=Oldies
TTITLE0=Freddy Fender - Wasted Days And Wasted Nights
TTITLE1=Jim Reeves - He'll Have To Go
TTITLE2=James Brown - Try Me (I Need You)
TTITLE3=Phil Phillips - Sea Of Love
TTITLE4=Chet Atkins - Teensville
TTITLE5=Dinah Washington and Brook Benton - A Rockin Good Way
TTITLE6=The Flamingos - Nobody Loves Me Like You
TTITLE7=Bill Brock - A Cup Of Coffee (Then I'll Go)
TTITLE8=Sonny Red - Bluesville
TTITLE9=The Starlites - Valarie
TTITLE10=Nat King Cole - Time And The River
TTITLE11=The Drifters - Please Stay
TTITLE12=Rosco Gordon - Let Em Try
TTITLE13=Solomon Burke - Just Out Of Reach (Of My Two Open Arms)
TTITLE14=The Impressions - Gypsy Woman
TTITLE15=Eddie Harris - Exodus
TTITLE16=The Shirelles - A Thing Of The Past
TTITLE17=Laurie Johnson and His Orchestra - Echo Four-Two
TTITLE18=Phillip Upchurch Combo - You Can't Sit Down
TTITLE19=Dave Bailey Quintet - Comin Home Baby
TTITLE20=John Barry - James Bond Theme
TTITLE21=Herbie Hancock - Watermelon Man
TTITLE22=Stan Getz - Theme From Dr. Kildare
TTITLE23=The Soul Stirrers - God Is Standing By
TTITLE24=Chuck Jackson - The Prophet
TTITLE25=The Impressions - Minstrel And Queen
TTITLE26=Lonnie Donegan - I'll Never Fall In Love Again
TTITLE27=Don and Juan - What's Your Name
EXTD=
EXTT0=
EXTT1=
EXTT2=
EXTT3=
EXTT4=
EXTT5=
EXTT6=
EXTT7=
EXTT8=
EXTT9=
EXTT10=
EXTT11=
EXTT12=
EXTT13=
EXTT14=
EXTT15=
EXTT16=
EXTT17=
EXTT18=
EXTT19=
EXTT20=
EXTT21=
EXTT22=
EXTT23=
EXTT24=
EXTT25=
EXTT26=
EXTT27=
PLAYORDER=
